<svg xmlns="http://www.w3.org/2000/svg" xmlns:xlink="http://www.w3.org/1999/xlink" style="isolation:isolate"
     viewBox="0 0 20 20" version="1.1" shape-rendering="crispEdges">
    <path d="M8 15v1H4v1H3v3h14v-3h-1v-1h-4v-1h3v-1h1v-1h1v-3h1V7h-1V4h-1V3h-1V2H5v1H4v1H3v3H2v3h1v3h1v1h1v1h3z"
          fill="#cb9e6e"/>
    <path d="M5 15v-1H4v-1H3v-3H2V7h1V4h1V3h1V2h10v1h1v1h1v3h1v3h-1v3h-1v1h-1v1H5z" fill="#FFF" fill-opacity=".1"/>
    <path d="M5 7h3v2H5V7zm7 0h3v2h-3V7z" fill="#FFF"/>
    <path d="M5 8h2v1H5V8zm7 0h2v1h-2V8z" fill="#697b94"/>
    <path d="M4 7V5h3v1H5v1H4zm12-2v2h-1V6h-2V5h3z" fill-rule="evenodd" fill="#211b14"/>
    <path d="M3 11v2h1v1h1v1h10v-1h1v-1h1v-2H3z" id="Path" fill="#3b3024" fill-opacity="0.5"/>
    <path d="M9 13v1h1v-1H9z" fill="#e4b39e"/>
    <path d="M3 20v-3h1v-1h4v1h1v1h2v-1h1v-1h4v1h1v3H3z" fill="#6497b1"/>
    <path d="M4 17v-1h3v1H4zm9 0v-1h3v1h-3z" fill-rule="evenodd" fill="#FFF" fill-opacity=".2"/>
    <path d="M3 7h1V5h2V3h8v1h1v1h1v2h1V3h-2V2h-2V1h-1v1h-2V1H9v1H8V1H7v1H5v1H4v1H3v3z" fill="#3b3024"/>
</svg>